Hammer of the Gods (2013) WD 720p DD5.1 Eng NL Subs
.
[IMG]http://imageshack.us/a/img7/926/hammerofthegods2013.jpg[/IMG]
.
R   -  Action  -  30 August 2013 (UK) 
Rated R for bloody violence, language including sexual references, and some nudity 
. 
http://www.imdb.com/title/tt2193418/
. 
http://www.moviemeter.nl/film/88759
.
PLOT
.
Action epic sees a passionate young man transform into a
brutal warrior as he travels the unforgiving landscape in
search of his long lost brother Hakan The Ferrocious, whose
people are relying on him to restore order to their kingdom.
.
General
Format                                   : Matroska
Format version                           : Version 4 / Version 2
File size                                : 3.06 GiB
Duration                                 : 1h 38mn
Overall bit rate mode                    : Variable
Overall bit rate                         : 4 422 Kbps
Encoded date                             : UTC 2013-06-02 08:38:37
Writing application                      : mkvmerge v6.1.0 ('Old Devil') built on Mar  2 2013 14:32:37
Writing library                          : libebml v1.3.0 + libmatroska v1.4.0

Video
ID                                       : 1
Format                                   : AVC
Format/Info                              : Advanced Video Codec
Format profile                           : High@L4.0
Format settings, CABAC                   : Yes
Format settings, ReFrames                : 3 frames
Codec ID                                 : V_MPEG4/ISO/AVC
Duration                                 : 1h 38mn
Bit rate mode                            : Variable
Bit rate                                 : 3 982 Kbps
Maximum bit rate                         : 20.0 Mbps
Width                                    : 1 280 pixels
Height                                   : 720 pixels
Display aspect ratio                     : 16:9
Frame rate mode                          : Constant
Frame rate                               : 23.976 fps
Color space                              : YUV
Chroma subsampling                       : 4:2:0
Bit depth                                : 8 bits
Scan type                                : Progressive
Bits/(Pixel*Frame)                       : 0.180
Stream size                              : 2.69 GiB (88%)
Writing library                          : x264 core 93 r1542M 5b86182
Encoding settings                        : cabac=1 / ref=2 / deblock=1:0:0 / analyse=0x3:0x112 / me=hex / subme=2 / psy=1 / psy_rd=0.00:0.00 / mixed_ref=0 / me_range=12 / chroma_me=1 / trellis=0 / 8x8dct=1 / cqm=0 / deadzone=21,11 / fast_pskip=1 / chroma_qp_offset=0 / threads=12 / sliced_threads=0 / nr=0 / decimate=1 / interlaced=0 / constrained_intra=0 / bframes=3 / b_pyramid=1 / b_adapt=1 / b_bias=0 / direct=1 / wpredb=1 / wpredp=0 / keyint=48 / keyint_min=8 / scenecut=40 / intra_refresh=0 / rc_lookahead=0 / rc=2pass / mbtree=0 / bitrate=3982 / ratetol=1.0 / qcomp=0.50 / qpmin=10 / qpmax=51 / qpstep=4 / cplxblur=20.0 / qblur=0.5 / vbv_maxrate=20000 / vbv_bufsize=25000 / ip_ratio=1.20 / pb_ratio=1.30 / aq=1:1.00 / nal_hrd=vbr
Default                                  : Yes
Forced                                   : No

Audio
ID                                       : 2
Format                                   : AC-3
Format/Info                              : Audio Coding 3
Mode extension                           : CM (complete main)
Format settings, Endianness              : Big
Codec ID                                 : A_AC3
Duration                                 : 1h 38mn
Bit rate mode                            : Constant
Bit rate                                 : 448 Kbps
Channel(s)                               : 6 channels
Channel positions                        : Front: L C R, Side: L R, LFE
Sampling rate                            : 48.0 KHz
Bit depth                                : 16 bits
Compression mode                         : Lossy
Stream size                              : 317 MiB (10%)
Language                                 : English
Default                                  : Yes
Forced                                   : No

Text #1
ID                                       : 3
Format                                   : UTF-8
Codec ID                                 : S_TEXT/UTF8
Codec ID/Info                            : UTF-8 Plain Text
Title                                    : Eng HI
Language                                 : English
Default                                  : No
Forced                                   : No

Text #2
ID                                       : 4
Format                                   : UTF-8
Codec ID                                 : S_TEXT/UTF8
Codec ID/Info                            : UTF-8 Plain Text
Title                                    : Eng Normal
Language                                 : English
Default                                  : No
Forced                                   : No

Text #3
ID                                       : 5
Format                                   : UTF-8
Codec ID                                 : S_TEXT/UTF8
Codec ID/Info                            : UTF-8 Plain Text
Language                                 : Dutch Vertaling SRT-TEAM
Default                                  : No
Forced                                   : No

Menu
00:00:00.000                             : en:1n[00:00:00]
00:02:08.000                             : en:2n[00:02:08]
00:08:55.000                             : en:3n[00:08:55]
00:17:27.000                             : en:4n[00:17:27]
00:26:18.000                             : en:5n[00:26:18]
00:35:31.000                             : en:6n[00:35:31]
00:45:54.000                             : en:7n[00:45:54]
00:53:37.000                             : en:8n[00:53:37]
01:01:13.000                             : en:9n[01:01:13]
01:11:55.000                             : en:10n[01:11:55]
01:18:20.000                             : en:11n[01:18:20]
01:26:51.000                             : en:12n[01:26:51]
01:35:17.000                             : en:13n[01:35:17]


.
Enjoy WD720p by NLU002